<svg xmlns="http://www.w3.org/2000/svg" version="1.0" width="449.000000pt" height="449.000000pt" viewBox="0 0 449.000000 449.000000" preserveAspectRatio="xMidYMid meet">

<g transform="translate(0.000000,449.000000) scale(0.100000,-0.100000)" fill="#ffffff" stroke="none">
<path d="M1987 4103 c-3 -5 -10 -35 -16 -67 -6 -33 -12 -60 -13 -61 -2 0 -32 -13 -68 -28 l-64 -27 -41 30 c-83 63 -74 66 -190 -50 -58 -58 -105 -108 -105 -112 0 -5 16 -33 36 -63 l36 -54 -27 -65 -27 -64 -72 -13 -71 -14 -3 -156 -2 -157 66 -12 c66 -13 66 -13 86 -59 10 -25 23 -54 29 -64 8 -15 2 -29 -31 -72 -23 -30 -40 -60 -38 -68 5 -21 191 -217 205 -217 7 0 36 16 63 35 27 19 53 35 58 35 5 0 32 -11 60 -25 29 -14 56 -25 61 -25 5 0 12 -26 16 -57 11 -100 13 -103 97 -103 40 0 79 4 86 8 9 7 12 53 10 197 l-3 188 -70 14 c-88 18 -153 53 -209 113 -54 58 -80 107 -96 184 -23 112 11 233 90 319 60 65 124 101 215 120 l70 14 3 191 2 192 -69 0 c-38 0 -72 -3 -74 -7z m103 -187 l0 -154 -44 -6 c-115 -18 -241 -116 -298 -233 -31 -64 -32 -74 -32 -178 0 -103 1 -114 31 -176 57 -117 185 -218 299 -235 l44 -6 0 -154 0 -154 -54 0 -54 0 -7 53 c-9 66 -21 97 -37 97 -7 0 -41 13 -76 30 l-64 30 -41 -25 c-23 -14 -50 -31 -60 -38 -16 -11 -28 -2 -98 72 -43 47 -79 89 -79 94 0 5 16 31 36 58 l36 49 -27 68 c-15 37 -31 77 -36 90 -5 12 -15 22 -23 22 -8 0 -38 5 -65 11 l-50 10 6 117 c3 64 7 118 8 120 1 1 30 7 64 13 l62 11 39 85 39 84 -36 55 -37 55 86 86 86 86 59 -42 59 -41 39 20 c22 12 59 26 82 31 41 11 42 12 53 68 16 81 16 81 55 81 l35 0 0 -154z" fill="#ffffff"/>
<path d="M2270 3815 l0 -295 -73 0 c-62 0 -77 3 -93 21 -10 12 -18 30 -16 41 10 56 -26 94 -77 83 -29 -6 -51 -39 -51 -75 0 -29 36 -60 68 -60 17 0 38 -10 52 -25 21 -23 31 -25 107 -25 l83 0 0 -55 0 -55 -168 0 c-156 0 -168 1 -180 20 -9 14 -23 20 -51 20 -46 0 -65 -19 -65 -65 0 -46 19 -65 65 -65 28 0 42 6 51 20 12 19 24 20 180 20 l168 0 0 -50 0 -50 -83 0 c-75 0 -86 -2 -106 -24 -12 -13 -39 -26 -61 -30 -60 -9 -82 -74 -40 -116 46 -46 116 -11 108 55 -6 52 15 66 104 68 l73 2 3 -297 2 -298 31 0 c45 0 98 28 122 65 19 30 23 31 86 31 81 -1 129 25 167 91 21 35 27 57 26 102 -1 57 -1 57 35 70 20 7 55 33 79 56 93 93 96 251 7 347 l-25 26 35 46 c104 137 58 321 -99 393 -40 18 -53 30 -57 51 -15 76 -98 142 -178 142 -43 0 -48 3 -72 38 -28 43 -79 72 -126 72 l-31 0 0 -295z m103 226 c36 -31 42 -53 18 -72 -22 -18 -29 -49 -11 -49 6 0 27 9 47 20 67 36 140 19 187 -42 31 -41 36 -119 10 -156 -8 -12 -12 -27 -9 -32 13 -21 33 -9 50 30 10 22 23 40 30 40 6 0 32 -14 58 -31 107 -71 128 -217 44 -314 l-32 -37 -48 16 c-66 22 -97 21 -97 -3 0 -16 11 -22 54 -31 102 -21 164 -89 174 -191 12 -122 -74 -214 -210 -227 -47 -4 -58 -8 -56 -21 2 -10 17 -18 38 -21 28 -4 36 -11 43 -37 8 -26 5 -41 -14 -80 -29 -58 -74 -86 -135 -85 -40 0 -55 6 -110 47 -9 6 -17 6 -26 -3 -9 -9 -7 -17 12 -36 22 -24 22 -26 6 -50 -17 -27 -74 -62 -83 -52 -5 4 -8 1424 -4 1444 2 7 47 -12 64 -27z m-319 -436 c6 -18 -20 -39 -39 -31 -18 7 -20 43 -2 49 17 6 34 -2 41 -18z m-159 -260 c0 -22 -31 -33 -47 -17 -17 17 -1 44 24 40 15 -2 23 -10 23 -23z m159 -240 c7 -18 -17 -37 -38 -29 -9 3 -16 14 -16 24 0 30 42 34 54 5z" fill="#ffffff"/>
<path d="M2520 3849 c-121 -48 -136 -227 -25 -290 61 -35 126 -32 112 5 -4 10 -18 16 -41 16 -66 0 -118 70 -108 142 5 34 53 85 85 90 14 2 22 10 22 22 0 24 -12 28 -45 15z" fill="#ffffff"/>
<path d="M2405 3442 c-42 -26 -70 -90 -60 -138 12 -64 105 -139 105 -84 0 11 -4 20 -9 20 -4 0 -20 12 -35 26 -62 62 -14 154 81 154 37 0 44 3 41 18 -5 26 -84 28 -123 4z" fill="#ffffff"/>
<path d="M2535 3290 c-11 -18 4 -64 31 -93 27 -29 64 -43 90 -33 24 9 12 29 -23 38 -35 9 -51 26 -62 64 -8 30 -25 42 -36 24z" fill="#ffffff"/>
<path d="M2464 3061 c-32 -20 -58 -67 -52 -97 6 -32 23 -25 43 18 16 33 27 44 53 51 24 6 32 13 30 25 -5 24 -38 26 -74 3z" fill="#ffffff"/>
<path d="M164 2426 c-3 -8 -4 -31 -2 -52 l3 -39 2118 -3 2117 -2 0 55 0 55 -2115 0 c-1800 0 -2116 -2 -2121 -14z" fill="#ffffff"/>
<path d="M645 2155 c-61 -22 -85 -56 -85 -118 0 -60 16 -89 62 -113 40 -21 112 -20 145 1 23 15 24 18 10 33 -13 12 -19 13 -31 3 -28 -23 -88 -16 -113 14 -50 58 -12 150 61 148 20 -1 43 -7 52 -14 12 -10 18 -9 31 3 14 15 13 17 -8 31 -37 23 -80 28 -124 12z" fill="#ffffff"/>
<path d="M916 2160 c-68 -21 -108 -97 -86 -164 30 -91 154 -119 228 -52 34 32 37 39 37 90 0 47 -4 59 -29 85 -17 17 -46 36 -65 41 -41 11 -46 11 -85 0z m112 -67 c20 -27 15 -100 -8 -123 -28 -28 -87 -27 -117 2 -45 42 -24 131 37 150 22 7 73 -10 88 -29z" fill="#ffffff"/>
<path d="M3002 2160 c-99 -23 -132 -150 -57 -220 50 -47 147 -43 199 9 27 27 31 38 31 86 0 46 -4 58 -29 84 -25 26 -85 54 -106 50 -3 -1 -20 -5 -38 -9z m113 -84 c27 -64 -9 -126 -72 -126 -101 0 -116 152 -18 172 36 8 76 -13 90 -46z" fill="#ffffff"/>
<path d="M1155 2148 c-3 -8 -4 -63 -3 -124 l3 -109 27 -3 c27 -3 27 -3 30 70 l3 73 35 -58 c21 -35 41 -56 50 -55 8 2 31 30 50 63 l35 59 3 -77 c3 -74 4 -77 27 -77 l25 0 0 125 c0 118 -1 125 -20 125 -11 0 -26 -10 -34 -22 -7 -13 -30 -49 -51 -82 l-37 -59 -47 79 c-33 55 -54 80 -69 82 -12 2 -24 -3 -27 -10z" fill="#ffffff"/>
<path d="M1510 2035 l0 -125 30 0 c27 0 30 3 30 34 l0 34 57 4 c46 4 61 10 80 32 13 15 23 38 23 52 0 64 -47 94 -150 94 l-70 0 0 -125z m159 53 c14 -24 14 -28 -3 -47 -13 -14 -31 -21 -58 -21 l-38 0 0 51 0 50 42 -3 c34 -2 45 -8 57 -30z" fill="#ffffff"/>
<path d="M1780 2076 c0 -98 9 -128 45 -152 30 -20 102 -22 135 -4 34 18 50 70 50 160 0 79 0 80 -25 80 -24 0 -25 -3 -26 -57 -3 -131 -12 -153 -65 -153 -50 0 -64 28 -64 127 0 82 0 83 -25 83 -25 0 -25 -1 -25 -84z" fill="#ffffff"/>
<path d="M2040 2141 c0 -16 8 -20 43 -23 l42 -3 1 -90 c1 -117 0 -115 29 -115 l25 0 0 105 0 105 40 0 c33 0 40 3 40 20 0 19 -7 20 -110 20 -102 0 -110 -1 -110 -19z" fill="#ffffff"/>
<path d="M2342 2093 c-17 -38 -42 -94 -56 -125 l-26 -58 25 0 c17 0 29 9 40 30 15 28 19 30 76 30 58 0 60 -1 70 -30 9 -24 17 -30 39 -30 l29 0 -50 113 c-28 61 -53 118 -56 125 -3 6 -17 12 -33 12 -24 0 -31 -8 -58 -67z m82 -33 c22 -56 21 -60 -24 -60 -28 0 -40 4 -40 15 0 19 32 85 41 85 4 0 14 -18 23 -40z" fill="#ffffff"/>
<path d="M2537 2154 c-15 -16 8 -34 44 -34 l39 0 0 -105 0 -105 25 0 25 0 0 105 0 105 40 0 c33 0 40 3 40 20 0 19 -7 20 -103 20 -57 0 -106 -3 -110 -6z" fill="#ffffff"/>
<path d="M2792 2038 l3 -123 28 -3 27 -3 0 125 0 126 -30 0 -31 0 3 -122z" fill="#ffffff"/>
<path d="M3240 2035 l0 -125 25 0 c23 0 24 3 27 77 l3 78 64 -78 c47 -56 70 -77 87 -77 24 0 24 0 24 125 l0 125 -30 0 -29 0 -3 -76 -3 -77 -63 77 c-39 47 -71 76 -83 76 -18 0 -19 -8 -19 -125z" fill="#ffffff"/>
<path d="M3591 2102 c-14 -31 -37 -85 -53 -119 -15 -34 -28 -64 -28 -67 0 -3 11 -6 24 -6 17 0 27 9 36 30 12 29 15 30 75 30 61 0 63 -1 74 -30 7 -23 16 -30 35 -30 15 0 26 2 26 4 0 7 -67 160 -89 204 -17 34 -27 42 -49 42 -23 0 -30 -8 -51 -58z m75 -37 c22 -54 19 -65 -20 -65 -19 0 -37 3 -39 8 -5 8 29 92 38 92 3 0 13 -16 21 -35z" fill="#ffffff"/>
<path d="M3825 2148 c-3 -7 -3 -62 -2 -123 l2 -110 93 -3 c87 -3 92 -2 92 18 0 18 -6 20 -65 20 l-65 0 0 105 0 105 -25 0 c-14 0 -28 -6 -30 -12z" fill="#ffffff"/>
<path d="M559 1826 c-2 -2 -3 -74 -1 -160 l3 -156 29 0 30 0 0 160 0 160 -28 0 c-16 0 -31 -2 -33 -4z" fill="#ffffff"/>
<path d="M702 1673 l3 -158 33 -3 32 -3 0 95 c0 53 4 96 8 96 4 0 43 -43 85 -95 58 -71 84 -95 101 -95 13 0 26 6 28 13 2 6 2 78 0 160 l-4 147 -29 0 -29 0 0 -95 c0 -52 -3 -95 -7 -95 -5 0 -42 43 -83 95 -67 84 -79 94 -108 94 l-33 1 3 -157z" fill="#ffffff"/>
<path d="M1040 1806 c0 -23 4 -25 53 -28 l52 -3 3 -132 3 -133 29 0 30 0 1 93 c1 50 3 101 4 112 1 11 3 30 3 43 2 20 7 22 52 22 47 0 50 2 50 25 l0 25 -140 0 -140 0 0 -24z" fill="#ffffff"/>
<path d="M1370 1670 l0 -161 118 3 c112 3 117 4 120 25 3 21 0 22 -85 25 l-88 3 0 40 0 40 73 3 c64 3 72 5 72 22 0 22 -3 23 -76 21 -59 -2 -77 13 -72 56 3 28 3 28 86 31 80 3 82 3 82 27 l0 25 -115 0 -115 0 0 -160z" fill="#ffffff"/>
<path d="M1679 1826 c-2 -2 -3 -74 -1 -160 l3 -156 108 0 c90 0 110 3 115 16 12 30 5 33 -76 36 l-83 3 -3 133 -3 132 -28 0 c-15 0 -30 -2 -32 -4z" fill="#ffffff"/>
<path d="M1960 1813 c0 -10 -1 -81 -1 -158 l-2 -140 114 0 c110 0 114 1 117 22 3 21 -1 22 -80 25 l-83 3 -3 133 -3 132 -29 0 c-22 0 -30 -5 -30 -17z" fill="#ffffff"/>
<path d="M2234 1817 c-2 -7 -3 -78 -2 -157 l3 -145 33 -3 32 -3 0 160 0 161 -30 0 c-17 0 -33 -6 -36 -13z" fill="#ffffff"/>
<path d="M2447 1810 c-53 -29 -77 -73 -77 -139 0 -106 71 -166 185 -159 36 2 73 11 89 21 23 16 26 24 26 77 l0 60 -35 0 -35 0 0 -50 c0 -45 -3 -50 -25 -56 -77 -19 -135 27 -135 108 0 41 5 54 29 79 34 34 83 39 133 13 28 -14 32 -14 46 0 15 15 14 18 -6 38 -32 32 -142 37 -195 8z" fill="#ffffff"/>
<path d="M2740 1670 l0 -161 123 3 c114 3 122 4 122 23 0 18 -8 20 -88 23 l-88 3 3 42 3 42 73 3 c64 3 72 5 72 22 0 17 -7 20 -42 21 -108 2 -103 0 -106 47 l-3 42 85 0 c85 0 86 0 86 25 l0 25 -120 0 -120 0 0 -160z" fill="#ffffff"/>
<path d="M3050 1670 l0 -160 35 0 35 0 0 95 c0 52 3 95 8 94 4 0 42 -43 85 -95 60 -72 84 -94 102 -94 l25 0 0 161 0 160 -32 -3 -33 -3 -5 -94 -5 -94 -78 96 c-67 82 -83 97 -108 97 l-29 0 0 -160z" fill="#ffffff"/>
<path d="M3492 1813 c-72 -35 -102 -134 -67 -214 35 -76 142 -111 229 -75 44 18 52 33 31 56 -17 19 -18 19 -43 0 -43 -34 -127 -18 -152 29 -19 36 -12 107 13 136 30 35 93 44 135 19 26 -14 33 -15 46 -5 23 19 20 29 -16 51 -41 25 -129 26 -176 3z" fill="#ffffff"/>
<path d="M3770 1670 l0 -161 118 3 c112 3 117 4 120 25 3 21 0 22 -85 25 l-88 3 0 40 0 40 73 3 c67 3 72 4 72 25 0 22 -3 22 -70 19 -67 -4 -69 -3 -75 21 -14 56 -7 62 83 65 80 3 82 4 82 27 l0 25 -115 0 -115 0 0 -160z" fill="#ffffff"/>
<path d="M595 1418 c-26 -15 -35 -28 -35 -55 0 -30 23 -50 71 -63 75 -20 57 -77 -19 -59 -50 11 -52 11 -52 -5 0 -19 22 -26 81 -26 50 0 89 23 89 53 0 28 -33 57 -76 68 -49 13 -64 30 -44 54 14 17 53 20 81 5 16 -9 19 -7 19 8 0 31 -74 43 -115 20z" fill="#ffffff"/>
<path d="M922 1415 c-40 -18 -66 -73 -57 -121 9 -49 56 -84 111 -84 66 0 84 13 84 60 0 22 -4 40 -10 40 -5 0 -13 0 -17 0 -5 1 -10 -14 -13 -32 -4 -29 -9 -33 -37 -36 -44 -4 -73 26 -73 77 0 31 6 44 26 60 32 25 52 26 81 6 17 -12 23 -12 32 -1 28 33 -70 57 -127 31z" fill="#ffffff"/>
<path d="M2404 1420 c-57 -23 -80 -100 -49 -160 20 -38 43 -50 99 -50 85 0 135 75 102 154 -23 55 -92 80 -152 56z m93 -42 c49 -46 19 -138 -45 -138 -40 0 -67 33 -67 82 0 69 64 101 112 56z" fill="#ffffff"/>
<path d="M2654 1411 c-97 -59 -52 -201 64 -201 26 0 55 7 65 14 15 12 16 15 2 26 -12 10 -19 10 -27 2 -19 -19 -66 -14 -88 8 -31 31 -27 93 6 119 32 25 52 26 81 6 18 -13 22 -13 33 0 9 11 6 17 -19 29 -40 21 -79 20 -117 -3z" fill="#ffffff"/>
<path d="M3082 1420 c-25 -11 -41 -45 -34 -73 4 -17 20 -26 95 -56 56 -22 13 -72 -45 -52 -41 14 -48 14 -48 -3 0 -19 22 -26 79 -26 55 0 81 21 81 63 0 28 -5 31 -92 66 -34 13 -38 47 -7 56 11 4 36 4 55 0 26 -4 34 -2 34 8 0 25 -72 35 -118 17z" fill="#ffffff"/>
<path d="M3283 1420 c-28 -11 -46 -45 -38 -71 6 -19 22 -28 98 -58 56 -22 14 -67 -48 -50 -40 12 -45 11 -45 -6 0 -18 34 -27 90 -23 33 2 48 9 63 30 18 24 19 29 5 49 -8 13 -37 30 -64 38 -84 27 -66 83 22 66 26 -4 34 -2 34 8 0 25 -72 35 -117 17z" fill="#ffffff"/>
<path d="M3863 1416 c-70 -32 -82 -130 -22 -180 23 -20 42 -26 75 -26 66 0 84 13 84 60 0 21 -4 41 -8 44 -15 9 -30 -9 -34 -39 -2 -26 -8 -30 -35 -33 -44 -4 -73 26 -73 77 0 31 6 44 26 60 32 25 52 26 81 6 17 -12 23 -12 32 -1 28 33 -69 57 -126 32z" fill="#ffffff"/>
<path d="M770 1315 l0 -105 25 0 25 0 0 105 0 105 -25 0 -25 0 0 -105z" fill="#ffffff"/>
<path d="M1120 1315 c0 -98 1 -105 20 -105 17 0 19 8 22 67 l3 68 55 -67 c80 -98 90 -93 90 37 0 98 -1 105 -20 105 -18 0 -20 -7 -20 -60 0 -33 -4 -60 -9 -60 -4 0 -29 27 -55 60 -29 36 -55 60 -67 60 -18 0 -19 -8 -19 -105z" fill="#ffffff"/>
<path d="M1396 1327 c-21 -50 -41 -98 -43 -104 -10 -25 34 -13 45 12 10 22 18 25 62 25 44 0 52 -3 62 -25 7 -16 19 -25 34 -25 22 0 21 3 -23 105 -41 95 -48 105 -72 105 -23 0 -30 -10 -65 -93z m103 -29 c1 -5 -15 -8 -34 -8 -40 0 -41 6 -19 58 l16 37 18 -40 c10 -22 19 -43 19 -47z" fill="#ffffff"/>
<path d="M1610 1315 l0 -105 80 0 c64 0 80 3 80 15 0 12 -13 15 -55 15 l-55 0 0 90 c0 89 0 90 -25 90 l-25 0 0 -105z" fill="#ffffff"/>
<path d="M1890 1315 l0 -105 25 0 c21 0 25 5 25 30 0 17 1 30 3 30 1 1 20 3 42 6 61 9 85 28 85 69 0 57 -27 75 -110 75 l-70 0 0 -105z m128 63 c29 -29 8 -63 -46 -74 l-32 -6 0 46 c0 45 0 46 33 46 18 0 38 -5 45 -12z" fill="#ffffff"/>
<path d="M2120 1315 c0 -97 1 -105 19 -105 15 0 21 8 23 33 5 48 40 49 70 3 15 -24 31 -36 46 -36 l23 0 -20 29 c-26 36 -26 36 -1 61 29 29 26 74 -6 99 -21 16 -41 21 -90 21 l-64 0 0 -105z m130 55 c15 -28 -3 -57 -40 -65 -39 -9 -50 0 -50 39 0 41 5 46 46 46 23 0 37 -6 44 -20z" fill="#ffffff"/>
<path d="M2850 1315 l0 -105 80 0 c64 0 80 3 80 15 0 12 -13 15 -61 15 l-60 0 3 33 c3 31 5 32 51 35 26 2 47 7 47 12 0 5 -21 10 -47 12 -44 3 -48 5 -51 31 -3 27 -2 27 52 27 43 0 56 3 56 15 0 12 -15 15 -75 15 l-75 0 0 -105z" fill="#ffffff"/>
<path d="M3460 1315 c0 -98 1 -105 20 -105 19 0 20 7 20 105 0 98 -1 105 -20 105 -19 0 -20 -7 -20 -105z" fill="#ffffff"/>
<path d="M3560 1316 c0 -99 1 -106 20 -106 21 0 23 9 22 87 0 18 3 35 7 37 4 3 29 -24 57 -59 35 -46 55 -64 69 -62 18 2 20 10 20 82 0 107 -3 125 -26 125 -17 0 -19 -8 -19 -61 0 -33 -4 -59 -9 -57 -4 2 -28 28 -53 58 -24 30 -54 56 -66 58 -21 3 -22 1 -22 -102z" fill="#ffffff"/>
<path d="M1675 1117 c-102 -41 -143 -143 -96 -235 39 -77 157 -109 244 -68 54 27 80 68 85 138 4 50 1 64 -21 97 -42 63 -144 96 -212 68z m136 -76 c25 -25 29 -37 29 -81 0 -44 -4 -56 -29 -81 -67 -66 -181 -16 -181 81 0 41 25 89 53 100 47 19 97 12 128 -19z" fill="#ffffff"/>
<path d="M3065 1115 c-50 -18 -91 -62 -105 -113 -45 -170 174 -281 301 -153 65 65 65 157 0 222 -34 35 -92 59 -136 59 -11 -1 -38 -7 -60 -15z m137 -74 c29 -26 33 -35 33 -81 0 -46 -4 -55 -33 -81 -45 -41 -102 -41 -143 0 -25 25 -29 37 -29 81 0 44 4 56 29 81 41 41 98 41 143 0z" fill="#ffffff"/>
<path d="M550 960 l0 -160 120 0 120 0 0 25 c0 25 -1 25 -79 25 -63 0 -80 3 -85 16 -3 9 -6 69 -6 135 l0 119 -35 0 -35 0 0 -160z" fill="#ffffff"/>
<path d="M936 1092 c-18 -34 -126 -282 -126 -288 0 -2 15 -4 34 -4 30 0 36 4 46 35 l12 35 82 0 82 0 13 -35 c11 -31 16 -35 47 -35 19 0 34 3 34 8 0 4 -31 75 -68 157 l-68 150 -37 3 c-31 3 -38 -1 -51 -26z m80 -105 c12 -28 20 -55 18 -59 -3 -5 -28 -8 -55 -8 -47 0 -50 2 -44 21 15 47 47 110 53 104 3 -3 16 -29 28 -58z" fill="#ffffff"/>
<path d="M1210 960 l0 -160 98 0 c113 0 165 12 187 43 22 31 19 61 -11 97 -25 29 -25 32 -10 49 18 20 21 63 6 91 -15 28 -65 40 -171 40 l-99 0 0 -160z m198 98 c7 -7 12 -22 12 -35 0 -23 -8 -27 -80 -36 -51 -6 -60 0 -60 44 l0 39 58 0 c32 0 63 -5 70 -12z m16 -134 c22 -21 20 -51 -3 -64 -11 -5 -47 -10 -80 -10 l-61 0 0 45 0 45 64 0 c45 0 69 -5 80 -16z" fill="#ffffff"/>
<path d="M1980 960 l0 -160 35 0 c35 0 35 0 35 45 l0 45 40 0 c35 0 42 -4 70 -45 27 -39 36 -45 67 -45 l35 0 -16 25 c-9 14 -24 37 -33 51 -16 25 -16 27 4 43 45 37 57 106 27 150 -26 37 -74 51 -174 51 l-90 0 0 -160z m190 90 c52 -52 0 -118 -86 -108 -27 3 -29 6 -32 52 -5 69 0 76 53 76 32 0 51 -6 65 -20z" fill="#ffffff"/>
<path d="M2405 1053 c-28 -66 -103 -230 -112 -245 -2 -5 12 -8 32 -8 31 0 38 5 52 35 l17 35 78 0 79 0 15 -35 c13 -31 19 -35 50 -35 25 0 35 4 31 13 -3 6 -35 78 -72 160 l-68 147 -37 0 c-36 0 -38 -1 -65 -67z m115 -119 c0 -10 -14 -14 -50 -14 -27 0 -50 4 -50 10 0 5 12 35 26 67 l26 58 24 -54 c13 -29 24 -60 24 -67z" fill="#ffffff"/>
<path d="M2650 1095 c0 -23 3 -25 50 -25 l50 0 0 -135 0 -135 35 0 35 0 0 135 0 135 55 0 c52 0 55 1 55 25 l0 25 -140 0 -140 0 0 -25z" fill="#ffffff"/>
<path d="M3380 961 l0 -161 35 0 c35 0 35 0 35 45 l0 45 39 0 c36 0 42 -4 68 -45 25 -40 32 -45 66 -45 l38 0 -31 44 c-36 54 -37 63 -5 87 33 27 43 83 21 123 -27 50 -51 60 -163 64 l-103 4 0 -161z m190 89 c25 -25 25 -51 1 -81 -14 -18 -29 -23 -67 -23 l-49 -1 -3 63 -3 62 51 0 c37 0 55 -5 70 -20z" fill="#ffffff"/>
<path d="M3690 1114 c0 -3 20 -38 44 -77 68 -113 76 -133 76 -187 l0 -50 35 0 35 0 0 61 c0 56 4 68 53 147 29 48 57 93 61 100 5 8 -2 12 -26 12 -30 0 -37 -6 -73 -67 -22 -36 -44 -66 -50 -66 -5 0 -28 30 -50 66 -36 61 -43 67 -72 67 -18 0 -33 -3 -33 -6z" fill="#ffffff"/>
<path d="M180 700 c-4 -3 -10 -25 -12 -50 l-3 -45 2118 -3 2118 -2 -3 50 -3 50 -2103 3 c-1157 1 -2108 0 -2112 -3z" fill="#ffffff"/>
</g>
</svg>