<?xml version="1.0" encoding="utf-8"?>
<!-- Generator: Adobe Illustrator 28.0.0, SVG Export Plug-In . SVG Version: 6.00 Build 0)  -->
<svg version="1.1" id="katman_2" xmlns="http://www.w3.org/2000/svg" xmlns:xlink="http://www.w3.org/1999/xlink" x="0px" y="0px"
	 viewBox="0 0 2160 2160" style="enable-background:new 0 0 2160 2160;" xml:space="preserve">
<style type="text/css">
	.st0{fill:#FFFFFF;}
	.st1{fill:#FFA200;}
	.st2{font-family:'Impact';}
	.st3{font-size:252.8341px;}
</style>
<path class="st0" d="M852,490H387c0,0-113-2-192,62c0,0-51,35-92,96c0,0-34,44-51,122c0,0-21,91,5,179s54,117,54,117s40,55,105,97
	s136,46,136,46h261.19h92.66L784,1073H425h-58h-5c0,0-70-4-125-64s-60-112-60-112s-10-71,8-124s65-95,65-95s53-46,118-49h136h174h53
	C731,629,758,532,852,490z"/>
<path class="st0" d="M1602,490c-74.67,0-149.33,0-224,0h-359h-87.28c0,0-49.72,2.57-79.72,19.79S782,554,750,630s10,161,10,161
	s30,67,107,99c0,0,19,11,103,16s382,31,382,31s49,11,48,70s-60,66-60,66h-231.35H807.41h-2.08l-77.32,136h609.31h10.41
	c0,0,88.26,6,150.26-89c0,0,35-50,34-116s-29-106-29-106s-43-81-122-94s-455-39-455-39s-46-3-56-59s49-78,49-78h369l197,1h2
	c0,0,19-88,113-137l4.48-2H1602z"/>
<path class="st0" d="M1533,915l104-251c0,0,14-39,51-36c0,0,37-7,55,33l106,256h-311.73h-3.9c0,0,17.63,31,13.63,100l342-1
	l79.09,193.08h148.18L1878,630c0,0-38.36-140-188.68-140S1502,637,1502,637l-70,165C1432,802,1502,838,1533,915z"/>
<polygon class="st0" points="1506.89,622.13 1493.21,657.72 1521,643 "/>
<path class="st0" d="M907,633.98c0,0,7.79-4.98,21.4-5.98c13.6-1-8.4-11-8.4-11l-27,9L907,633.98z"/>
<text transform="matrix(1.1747 0 0 1 486.7729 1502.4209)" class="st1 st2 st3">ROBOTICS</text>
</svg>
